<?xml version="1.0" standalone="no"?>
<!DOCTYPE svg PUBLIC "-//W3C//DTD SVG 20010904//EN"
 "http://www.w3.org/TR/2001/REC-SVG-20010904/DTD/svg10.dtd">
<svg version="1.0" xmlns="http://www.w3.org/2000/svg"
 width="256.000000pt" height="256.000000pt" viewBox="0 0 256.000000 256.000000"
 preserveAspectRatio="xMidYMid meet">
<metadata>
Created by potrace 1.16, written by Peter Selinger 2001-2019
</metadata>
<g transform="translate(0.000000,256.000000) scale(0.100000,-0.100000)"
fill="#000000" stroke="none">
<path d="M1558 2543 c-21 -9 -38 -20 -38 -25 0 -10 -70 -42 -77 -35 -2 3 12
10 32 17 20 7 34 14 32 16 -7 8 -320 -116 -331 -131 -14 -18 -66 -38 -66 -25
0 13 -130 -36 -144 -55 -11 -14 -66 -39 -66 -29 0 3 14 10 31 16 16 6 28 12
26 14 -7 8 -190 -66 -201 -81 -11 -14 -66 -39 -66 -29 0 3 14 10 31 16 16 6
28 12 26 14 -7 8 -190 -66 -201 -81 -11 -14 -66 -39 -66 -29 0 3 14 10 31 16
16 6 28 12 26 14 -2 2 -17 -1 -34 -7 -23 -7 -32 -18 -37 -41 -8 -40 -8 -2061
0 -2082 6 -15 84 -16 810 -16 l803 0 20 29 c21 29 21 37 21 1026 0 993 0 997
-21 1026 -36 51 -64 59 -214 59 l-135 0 0 160 c0 174 -6 200 -56 239 -31 25
-82 26 -136 4z m90 -256 c2 -128 0 -169 -10 -172 -7 -3 -218 -4 -468 -3 l-454
3 274 104 c151 57 354 135 450 172 96 37 182 67 190 66 13 -2 15 -30 18 -170z
m462 -1232 l0 -1000 -21 -25 -21 -25 16 27 c14 25 16 123 16 1023 0 900 -2
998 -16 1023 l-16 27 21 -25 21 -25 0 -1000z m-90 0 l0 -975 -740 0 -740 0 0
975 0 975 740 0 740 0 0 -975z"/>
<path d="M1243 1889 c-59 -17 -89 -69 -84 -149 2 -21 -5 -28 -48 -43 -65 -23
-153 -103 -185 -170 -16 -33 -28 -79 -32 -124 -6 -62 -10 -75 -31 -88 -13 -9
-31 -31 -40 -50 -23 -48 -5 -108 40 -135 30 -19 53 -20 415 -20 316 0 388 3
411 15 29 14 61 68 61 102 0 24 -34 79 -58 92 -15 8 -21 26 -26 82 -8 87 -40
159 -98 218 -39 40 -126 91 -155 91 -8 0 -12 18 -11 50 0 94 -72 153 -159 129z
m139 -286 c50 -48 87 -128 95 -204 l6 -59 -257 0 -256 0 0 33 c0 80 71 220
103 200 6 -3 7 -1 3 5 -7 11 36 38 84 53 14 4 60 8 104 8 78 1 79 1 118 -36z
m272 -349 c22 -9 20 -51 -3 -64 -13 -6 -148 -10 -371 -10 -223 0 -358 4 -371
10 -21 12 -25 40 -7 58 9 9 106 12 374 12 199 0 369 -3 378 -6z"/>
<path d="M708 949 c-16 -9 -18 -26 -18 -132 0 -82 4 -127 12 -135 8 -8 53 -12
135 -12 148 0 143 -5 143 142 0 147 -1 148 -143 148 -62 0 -120 -5 -129 -11z
m192 -132 c0 -35 -2 -66 -4 -68 -2 -2 -34 -2 -70 -1 l-66 4 0 64 0 64 70 0 70
0 0 -63z"/>
<path d="M1136 938 c-11 -15 -12 -26 -5 -40 9 -17 30 -18 362 -18 261 0 356 3
365 12 18 18 14 46 -7 58 -13 6 -144 10 -360 10 -337 0 -340 0 -355 -22z"/>
<path d="M1140 732 c-19 -16 -21 -22 -11 -40 12 -22 12 -22 364 -22 261 0 356
3 365 12 18 18 14 46 -7 58 -13 6 -143 10 -354 10 -309 0 -337 -1 -357 -18z"/>
<path d="M702 498 c-8 -8 -12 -53 -12 -135 0 -111 2 -123 19 -133 11 -5 67
-10 125 -10 143 0 146 3 146 146 0 58 -5 114 -10 125 -10 17 -22 19 -133 19
-82 0 -127 -4 -135 -12z m196 -131 l3 -68 -68 3 -68 3 -2 55 c-3 81 -2 81 69
78 l63 -3 3 -68z"/>
<path d="M1130 490 c-8 -15 -6 -24 10 -40 19 -19 32 -20 356 -20 212 0 342 4
355 10 21 12 25 40 7 58 -9 9 -104 12 -365 12 -341 0 -353 -1 -363 -20z"/>
<path d="M1130 280 c-8 -15 -6 -24 10 -40 19 -19 32 -20 356 -20 212 0 342 4
355 10 21 12 25 40 7 58 -9 9 -104 12 -365 12 -341 0 -353 -1 -363 -20z"/>
<path d="M442 1060 c-1 -569 2 -1040 6 -1047 6 -10 6 1050 -1 1792 -1 160 -3
-176 -5 -745z"/>
</g>
</svg>
